<svg width="567" height="567" viewBox="0 0 567 567" fill="none" xmlns="http://www.w3.org/2000/svg">
<rect width="567" height="567" fill="white"/>
<path d="M299.833 32C290.812 32 283.5 39.3117 283.5 48.3312V396.729C283.5 405.749 276.188 413.061 267.167 413.061H168.083C159.062 413.061 151.75 405.749 151.75 396.729V171.359C151.75 162.34 144.438 155.028 135.417 155.028H36.3326C27.3124 155.028 20 162.34 20 171.359V518.669C20 527.688 27.3124 535 36.3326 535H398.917C407.938 535 415.25 527.688 415.25 518.669V170.271C415.25 161.251 422.562 153.939 431.583 153.939L530.667 153.939C539.688 153.939 547 146.628 547 137.608V48.3312C547 39.3117 539.688 32 530.667 32L299.833 32Z" fill="#0F09C0"/>
</svg>
