<svg width="678" height="678" viewBox="0 0 678 678" fill="none" xmlns="http://www.w3.org/2000/svg">
<rect width="678" height="678" fill="white"/>
<path fill-rule="evenodd" clip-rule="evenodd" d="M105.639 590C97.5541 590 91 583.441 91 575.35V223.738C91 215.647 97.5541 209.087 105.639 209.087H208.111C216.196 209.087 222.75 215.647 222.75 223.738V453.262C222.75 461.353 229.304 467.913 237.389 467.913H339.861C347.946 467.913 354.5 461.353 354.5 453.262V101.65C354.5 93.5592 361.054 87 369.139 87H603.361C611.446 87 618 93.5592 618 101.65V194.437C618 202.528 611.446 209.087 603.361 209.087H500.889C492.804 209.087 486.25 215.647 486.25 223.738V575.35C486.25 583.441 479.696 590 471.611 590H105.639Z" fill="#0F09C0"/>
</svg>
