<svg width="484" height="462" viewBox="0 0 484 462" fill="none" xmlns="http://www.w3.org/2000/svg">
<path fill-rule="evenodd" clip-rule="evenodd" d="M15 461.593C6.71573 461.593 0 454.877 0 446.593V127.037C0 118.753 6.71573 112.037 15 112.037H106C114.284 112.037 121 118.753 121 127.037V334.556C121 342.84 127.716 349.556 136 349.556H227C235.284 349.556 242 342.84 242 334.556V15C242 6.71573 248.716 0 257 0H469C477.284 0 484 6.71572 484 15V97.037C484 105.321 477.284 112.037 469 112.037H378C369.716 112.037 363 118.753 363 127.037V446.593C363 454.877 356.284 461.593 348 461.593H15Z" fill="#0F09C0"/>
</svg>
